# xmcd
#
# Track frame offsets: 
#        150
#        13063
#        27222
#        35934
#        45473
#        54013
#        61268
#        79594
#        88811
#        100494
#        118050
#        126777
#        133809
#        142290
#        148029
#        159704
#        171676
#        181671
#
# Disc length: 2602 seconds
#
# Revision: 2
# Processed by: cddbd v1.5.2PL0 Copyright (c) Steve Scherf et al.
# Submitted via: ExactAudioCopy v0.95b4
#
DISCID=070a2812
DTITLE=Halasz  Judit - Helikoffer
DYEAR=1983
DGENRE=Children pop
TTITLE0=Zenecirkusz
TTITLE1=A mi kertunk
TTITLE2=Faiskola
TTITLE3=A cinege cipelloje
TTITLE4=Hideg szel fuj
TTITLE5=Medve-nota
TTITLE6=Hullocsillag
TTITLE7=Tucsokdal
TTITLE8=Szallnak az alkonyi felhok
TTITLE9=Helikoffer
TTITLE10=Kanal
TTITLE11=Mehemed es a tehenek
TTITLE12=Vaseszu Miklos
TTITLE13=Csalimese
TTITLE14=A Nulla
TTITLE15=Neked igy,nekem ugy
TTITLE16=Vadlud voltam
TTITLE17=Kesore jar
EXTD=Hunarian Poems with instruments for children
EXTT0=
EXTT1=
EXTT2=
EXTT3=
EXTT4=
EXTT5=
EXTT6=
EXTT7=
EXTT8=
EXTT9=
EXTT10=
EXTT11=
EXTT12=
EXTT13=
EXTT14=
EXTT15=
EXTT16=
EXTT17=
PLAYORDER=
